<svg width="140" height="140" viewBox="0 0 140 140" fill="none" xmlns="http://www.w3.org/2000/svg">
<path d="M60.7529 79.4446V86.7678H36.0645V79.4446H60.7529Z" fill="white" stroke="#4BB0E6" stroke-width="1.359"/>
<path d="M78.1182 96.8097V104.133H36.0645V96.8097H78.1182Z" fill="white" stroke="#4BB0E6" stroke-width="1.359"/>
<path d="M113.526 18.6672L113.923 18.677C115.9 18.7769 117.777 19.6071 119.184 21.0139C120.59 22.4206 121.42 24.2964 121.52 26.2737L121.53 26.6711V113.495C121.528 115.617 120.684 117.651 119.184 119.152C117.683 120.652 115.648 121.496 113.526 121.498H26.7031C24.5812 121.496 22.5464 120.652 21.0459 119.152C19.6391 117.745 18.8089 115.868 18.709 113.891L18.6992 113.494V26.6711C18.7013 24.5491 19.5454 22.5144 21.0459 21.0139C22.4526 19.6072 24.3282 18.777 26.3057 18.677L26.7031 18.6672H113.526ZM26.0225 114.174H114.211V113.495L114.206 26.6702V25.9905H86.7998V52.0383H53.4287V25.9905H26.0225V114.174ZM60.7529 44.7141H79.4766V25.9905H60.7529V44.7141Z" fill="white" stroke="#4BB0E6" stroke-width="1.359"/>
</svg>
