<svg width="24" height="24" viewBox="0 0 24 24" fill="none" xmlns="http://www.w3.org/2000/svg">
<path d="M22.125 12C22.125 9.99747 21.5312 8.0399 20.4186 6.37486C19.3061 4.70981 17.7248 3.41206 15.8747 2.64572C14.0246 1.87939 11.9888 1.67888 10.0247 2.06955C8.06066 2.46023 6.25656 3.42454 4.84055 4.84055C3.42454 6.25656 2.46023 8.06066 2.06955 10.0247C1.67888 11.9888 1.87939 14.0246 2.64572 15.8747C3.41206 17.7248 4.70981 19.3061 6.37486 20.4186C8.0399 21.5312 9.99747 22.125 12 22.125C14.6846 22.1225 17.2585 21.055 19.1567 19.1567C21.055 17.2585 22.1225 14.6846 22.125 12ZM13.125 19.7906V14.625H15C15.2984 14.625 15.5845 14.5065 15.7955 14.2955C16.0065 14.0845 16.125 13.7984 16.125 13.5C16.125 13.2016 16.0065 12.9155 15.7955 12.7045C15.5845 12.4935 15.2984 12.375 15 12.375H13.125V10.5C13.125 10.2016 13.2435 9.91549 13.4545 9.70451C13.6655 9.49353 13.9516 9.375 14.25 9.375H15.75C16.0484 9.375 16.3345 9.25648 16.5455 9.0455C16.7565 8.83452 16.875 8.54837 16.875 8.25C16.875 7.95164 16.7565 7.66549 16.5455 7.45451C16.3345 7.24353 16.0484 7.125 15.75 7.125H14.25C13.3549 7.125 12.4965 7.48058 11.8635 8.11352C11.2306 8.74645 10.875 9.6049 10.875 10.5V12.375H9C8.70164 12.375 8.41549 12.4935 8.20451 12.7045C7.99353 12.9155 7.875 13.2016 7.875 13.5C7.875 13.7984 7.99353 14.0845 8.20451 14.2955C8.41549 14.5065 8.70164 14.625 9 14.625H10.875V19.7906C8.90447 19.5062 7.1148 18.486 5.86617 16.9352C4.61755 15.3844 4.00265 13.4183 4.14522 11.4325C4.2878 9.44661 5.17727 7.58847 6.63463 6.232C8.09198 4.87552 10.009 4.1214 12 4.1214C13.991 4.1214 15.908 4.87552 17.3654 6.232C18.8227 7.58847 19.7122 9.44661 19.8548 11.4325C19.9974 13.4183 19.3825 15.3844 18.1338 16.9352C16.8852 18.486 15.0955 19.5062 13.125 19.7906Z" fill="white"/>
</svg>
