<svg width="75" height="75" viewBox="0 0 75 75" fill="none" xmlns="http://www.w3.org/2000/svg">
<path d="M37.0645 21.8888C37.3356 21.8885 37.6027 21.9526 37.8438 22.0743L37.9453 22.13L51.8613 30.3634V30.3644C52.1203 30.5175 52.3353 30.7349 52.4844 30.9962C52.6334 31.2576 52.712 31.5538 52.7119 31.8546V47.8585C52.712 48.1588 52.6333 48.4542 52.4844 48.715C52.3354 48.9758 52.121 49.1932 51.8623 49.3458H51.8613L37.9453 57.5802L37.9424 57.5822C37.6773 57.7413 37.3737 57.8253 37.0645 57.8253C36.7553 57.8253 36.4516 57.7413 36.1865 57.5822L36.1836 57.5802L22.2676 49.3458H22.2666C21.7414 49.0366 21.417 48.4705 21.417 47.8575V31.8546C21.4169 31.5542 21.4956 31.2581 21.6445 30.9972C21.7935 30.7364 22.0079 30.5189 22.2666 30.3663H22.2676L36.1836 22.1329L36.1846 22.132C36.4507 21.9736 36.7548 21.8892 37.0645 21.8888ZM49.25 32.8409L48.9609 32.67L37.3643 25.8097L37.0645 25.632L36.7646 25.8097L25.168 32.67L24.8799 32.8409V46.8712L25.168 47.0421L36.7646 53.9025L37.0645 54.0802L37.3643 53.9025L48.9609 47.0421L49.25 46.8712V32.8409Z" fill="white" stroke="#4BB0E6" stroke-width="1.17668"/>
<path d="M62.5771 47.4028C66.0883 47.4028 68.9471 50.2608 68.9473 53.772C68.9473 57.2832 66.0884 60.1421 62.5771 60.1421C61.3941 60.142 60.2911 59.7939 59.3281 59.2183L59.0283 59.0396L58.7275 59.2173L37.9463 71.4985H37.9453C37.6788 71.6564 37.3742 71.7391 37.0645 71.7388C36.7548 71.7384 36.4507 71.6549 36.1846 71.4966L36.1836 71.4956L20.6582 62.3228L22.418 59.3413L36.7656 67.8188L37.0645 67.9956L37.3643 67.8188L56.3477 56.603L56.7666 56.355L56.6025 55.8979C56.3583 55.2171 56.208 54.5095 56.208 53.772C56.2081 50.2609 59.0661 47.403 62.5771 47.4028ZM27.4443 17.397L13.5723 25.5962L13.2832 25.7671V47.6577L13.6758 47.7954C14.9139 48.2319 15.9869 49.0415 16.7471 50.1118C17.4597 51.1153 17.8648 52.3026 17.916 53.5288L17.9219 53.7739C17.921 57.2844 15.0625 60.1421 11.5518 60.1421C8.04107 60.1421 5.18256 57.2844 5.18164 53.7739C5.18589 52.4613 5.59646 51.182 6.35645 50.1118C7.11662 49.0415 8.18961 48.2319 9.42773 47.7954L9.82031 47.6577V24.7798C9.82032 24.4791 9.89893 24.1836 10.0479 23.9224C10.1969 23.661 10.4119 23.4427 10.6709 23.2896L25.6846 14.4155L27.4443 17.397ZM11.5254 50.8647C10.7769 50.8983 10.0705 51.2198 9.55273 51.7612C9.03495 52.3027 8.74518 53.0228 8.74512 53.772C8.74512 54.5212 9.03489 55.2422 9.55273 55.7837C10.0705 56.325 10.7771 56.6457 11.5254 56.6792L11.5518 56.6802L11.5781 56.6792C12.3265 56.6457 13.033 56.325 13.5508 55.7837C14.0686 55.2422 14.3584 54.5212 14.3584 53.772C14.3583 53.0228 14.0686 52.3027 13.5508 51.7612C13.033 51.2198 12.3266 50.8982 11.5781 50.8647L11.5518 50.8638L11.5254 50.8647ZM62.5508 50.8647C61.8024 50.8983 61.0959 51.2198 60.5781 51.7612C60.0604 52.3027 59.7715 53.0228 59.7715 53.772C59.7715 54.5212 60.0603 55.2422 60.5781 55.7837C61.0959 56.325 61.8025 56.6456 62.5508 56.6792L62.5771 56.6802L62.6035 56.6792C63.352 56.6457 64.0593 56.3252 64.5771 55.7837C65.095 55.2422 65.3838 54.5212 65.3838 53.772C65.3837 53.0229 65.0948 52.3027 64.5771 51.7612C64.0593 51.2197 63.352 50.8982 62.6035 50.8647L62.5771 50.8638L62.5508 50.8647ZM37.0645 6.79736C35.4624 6.79745 34.1578 8.09854 34.1572 9.70361C34.1567 10.2794 34.3269 10.8428 34.6465 11.3218C34.966 11.8007 35.4203 12.1744 35.9521 12.395C36.4839 12.6156 37.0691 12.6732 37.6338 12.561C38.1985 12.4488 38.7179 12.1713 39.125 11.7642C39.5319 11.3571 39.8087 10.8385 39.9209 10.2739C40.0331 9.70926 39.9754 9.12407 39.7549 8.59229C39.5343 8.06046 39.1606 7.60615 38.6816 7.28662C38.2625 7.00704 37.7793 6.84078 37.2793 6.8042L37.0645 6.79736ZM60.8467 25.769L60.5576 25.5981L41.8008 14.5142L41.4434 14.3032L41.124 14.5688C40.0108 15.4982 38.6087 16.0747 37.0645 16.0747C33.5533 16.0746 30.6953 13.2158 30.6953 9.70459C30.6953 6.19339 33.5533 3.33456 37.0645 3.33447C40.5757 3.33447 43.4346 6.19334 43.4346 9.70459C43.4346 10.12 43.3883 10.5281 43.3105 10.9321L43.2324 11.3384L43.5889 11.5493L63.459 23.2896C63.7179 23.4427 63.9321 23.6611 64.0811 23.9224C64.23 24.1836 64.3086 24.4791 64.3086 24.7798V41.5874H60.8467V25.769Z" fill="white" stroke="#4BB0E6" stroke-width="1.17668"/>
</svg>
