<svg width="89" height="74" viewBox="0 0 89 74" fill="none" xmlns="http://www.w3.org/2000/svg">
<path d="M77.874 41.9763C79.2086 41.978 80.4679 42.4147 81.3789 43.1619C82.2297 43.8597 82.7018 44.7627 82.7588 45.6833L82.7646 45.8669V59.5535C82.7625 60.5366 82.2859 61.5136 81.3789 62.2576C80.4679 63.0047 79.2086 63.4415 77.874 63.4431H47.2822C45.9474 63.442 44.6875 63.0049 43.7764 62.2576C42.8691 61.5133 42.3928 60.536 42.3916 59.5525V45.8669C42.3928 44.8835 42.8691 43.9061 43.7764 43.1619C44.6305 42.4613 45.7907 42.0338 47.0322 41.9822L47.2822 41.9763H77.874ZM46.6084 60.2263H78.5537V59.5535L78.5479 45.866V45.1931H46.6084V60.2263Z" fill="white" stroke="#4BB0E6" stroke-width="1.34635"/>
<path d="M32.9473 31.7542L34.0479 32.6565V23.7268H38.2637V38.3489H20.1416V35.1331H31.3242L29.8691 33.9397L18.5625 24.6663L21.4336 22.3108L32.9473 31.7542Z" fill="white" stroke="#4BB0E6" stroke-width="1.34635"/>
<path d="M72.3115 12.3201C73.6464 12.3212 74.9062 12.7583 75.8174 13.5056C76.6679 14.2033 77.1397 15.1057 77.1963 16.0261L77.2021 16.2107V36.0681H72.9854V15.5369H10.4521V46.5388H35.4834V49.7556H11.126C9.79112 49.7545 8.53126 49.3174 7.62012 48.5701C6.71283 47.8258 6.23655 46.8485 6.23535 45.865V16.2107C6.23655 15.2272 6.71283 14.2499 7.62012 13.5056C8.47426 12.805 9.6345 12.3776 10.876 12.3259L11.126 12.3201H72.3115Z" fill="white" stroke="#4BB0E6" stroke-width="1.34635"/>
</svg>
