<svg width="20" height="20" viewBox="0 0 20 20" fill="none" xmlns="http://www.w3.org/2000/svg">
<path d="M16.6667 2.5H3.33341C2.89139 2.5 2.46746 2.67559 2.1549 2.98816C1.84234 3.30072 1.66675 3.72464 1.66675 4.16667V15.8333C1.66675 16.2754 1.84234 16.6993 2.1549 17.0118C2.46746 17.3244 2.89139 17.5 3.33341 17.5H16.6667C17.1088 17.5 17.5327 17.3244 17.8453 17.0118C18.1578 16.6993 18.3334 16.2754 18.3334 15.8333V4.16667C18.3334 3.72464 18.1578 3.30072 17.8453 2.98816C17.5327 2.67559 17.1088 2.5 16.6667 2.5ZM9.16675 14.1667H4.16675V12.5H9.16675V14.1667ZM15.8334 10.8333H4.16675V9.16667H15.8334V10.8333ZM15.8334 7.5H4.16675V5.83333H15.8334V7.5Z" fill="#858585"/>
</svg>
