<svg width="16" height="20" viewBox="0 0 16 20" fill="none" xmlns="http://www.w3.org/2000/svg">
<path d="M7.99993 0L10.0862 1.08L12.4087 1.4325L13.4612 3.5325L15.1324 5.1825L14.7499 7.5L15.1324 9.8175L13.4612 11.4675L12.4087 13.5675L10.0862 13.92L7.99993 15L5.91368 13.92L3.59118 13.5675L2.53868 11.4675L0.867432 9.8175L1.24993 7.5L0.867432 5.1825L2.53868 3.5325L3.59118 1.4325L5.91368 1.08L7.99993 0Z" fill="#858585"/>
<path d="M3 14.7424V19.9999L8 18.7499L13 19.9999V14.7424L10.4775 15.1249L8 16.4074L5.5225 15.1249L3 14.7424Z" fill="#858585"/>
</svg>
