<svg width="123" height="123" viewBox="0 0 123 123" fill="none" xmlns="http://www.w3.org/2000/svg">
<path d="M15.848 76.6724V84.3026H33.3442L8.21777 109.429L13.6124 114.824L38.7387 89.6972V107.193H46.369V76.6724H15.848Z" fill="#616161"/>
<path d="M107.411 46.1512H84.5204C82.4973 46.1492 80.5577 45.3446 79.1272 43.9141C77.6967 42.4836 76.8922 40.544 76.8901 38.521V15.6302C76.8922 13.6072 77.6967 11.6676 79.1272 10.2371C80.5577 8.80657 82.4973 8.00202 84.5204 8H107.411C109.434 8.00202 111.374 8.80657 112.804 10.2371C114.235 11.6676 115.039 13.6072 115.041 15.6302V38.521C115.039 40.544 114.235 42.4836 112.804 43.9141C111.374 45.3446 109.434 46.1492 107.411 46.1512ZM84.5204 15.6302V38.521H107.411V15.6302H84.5204Z" fill="#616161"/>
<path d="M92.1507 99.5632H61.6297V91.9329H92.1507V65.2271H31.1088C29.0857 65.2251 27.1461 64.4205 25.7156 62.99C24.2851 61.5595 23.4805 59.6199 23.4785 57.5968V30.891C23.4805 28.8679 24.2851 26.9283 25.7156 25.4978C27.1461 24.0673 29.0857 23.2628 31.1088 23.2607H69.26V30.891H31.1088V57.5968H92.1507C94.1737 57.5989 96.1134 58.4034 97.5439 59.8339C98.9744 61.2644 99.7789 63.204 99.7809 65.2271V91.9329C99.7789 93.956 98.9744 95.8956 97.5439 97.3261C96.1134 98.7566 94.1737 99.5611 92.1507 99.5632Z" fill="#616161"/>
</svg>
