<svg width="20" height="20" viewBox="0 0 20 20" fill="none" xmlns="http://www.w3.org/2000/svg">
<path d="M10 4.58325C10.7735 4.58325 11.5154 4.89054 12.0624 5.43752C12.6094 5.98451 12.9167 6.72637 12.9167 7.49992C12.9167 8.27347 12.6094 9.01533 12.0624 9.56231C11.5154 10.1093 10.7735 10.4166 10 10.4166C9.22645 10.4166 8.48459 10.1093 7.93761 9.56231C7.39062 9.01533 7.08333 8.27347 7.08333 7.49992C7.08333 6.72637 7.39062 5.98451 7.93761 5.43752C8.48459 4.89054 9.22645 4.58325 10 4.58325ZM4.16667 6.66659C4.63333 6.66659 5.06667 6.79159 5.44167 7.01659C5.31667 8.20825 5.66667 9.39159 6.38333 10.3166C5.96667 11.1166 5.13333 11.6666 4.16667 11.6666C3.50363 11.6666 2.86774 11.4032 2.3989 10.9344C1.93006 10.4655 1.66667 9.82963 1.66667 9.16658C1.66667 8.50354 1.93006 7.86766 2.3989 7.39882C2.86774 6.92998 3.50363 6.66659 4.16667 6.66659ZM15.8333 6.66659C16.4964 6.66659 17.1323 6.92998 17.6011 7.39882C18.0699 7.86766 18.3333 8.50354 18.3333 9.16658C18.3333 9.82963 18.0699 10.4655 17.6011 10.9344C17.1323 11.4032 16.4964 11.6666 15.8333 11.6666C14.8667 11.6666 14.0333 11.1166 13.6167 10.3166C14.3432 9.3786 14.6805 8.19675 14.5583 7.01659C14.9333 6.79159 15.3667 6.66659 15.8333 6.66659ZM4.58333 15.2083C4.58333 13.4833 7.00833 12.0833 10 12.0833C12.9917 12.0833 15.4167 13.4833 15.4167 15.2083V16.6666H4.58333V15.2083ZM0 16.6666V15.4166C0 14.2583 1.575 13.2833 3.70833 12.9999C3.21667 13.5666 2.91667 14.3499 2.91667 15.2083V16.6666H0ZM20 16.6666H17.0833V15.2083C17.0833 14.3499 16.7833 13.5666 16.2917 12.9999C18.425 13.2833 20 14.2583 20 15.4166V16.6666Z" fill="#858585"/>
</svg>
