<svg width="64" height="66" viewBox="0 0 64 66" fill="none" xmlns="http://www.w3.org/2000/svg">
<path d="M5.30762 47.7196H58.3799C58.7386 47.7196 59.0852 47.8652 59.3418 48.1278C59.5988 48.3908 59.7451 48.75 59.7451 49.1259V63.6093C59.7451 63.9851 59.5988 64.3443 59.3418 64.6073C59.0852 64.8699 58.7386 65.0155 58.3799 65.0155H5.30762C4.94882 65.0155 4.60234 64.8699 4.3457 64.6073C4.08882 64.3443 3.94336 63.9851 3.94336 63.6093V49.1259C3.94336 48.7501 4.08882 48.3908 4.3457 48.1278C4.60234 47.8652 4.94882 47.7196 5.30762 47.7196ZM6.67188 62.204H57.0156V50.5311H6.67188V62.204ZM10.21 22.3719V40.4774H53.4775V22.3719H56.207V40.4774H61.0342C61.1583 40.4775 61.2794 40.5281 61.3701 40.621C61.4611 40.7142 61.5137 40.8427 61.5137 40.9784V42.7889C61.5136 42.9246 61.4611 43.0532 61.3701 43.1464C61.2794 43.2391 61.1583 43.2889 61.0342 43.2889H2.6543C2.53023 43.2889 2.40909 43.239 2.31836 43.1464C2.22734 43.0532 2.1739 42.9246 2.17383 42.7889V40.9784C2.17383 40.8426 2.22728 40.7142 2.31836 40.621C2.40912 40.5281 2.5301 40.4774 2.6543 40.4774H7.48145V22.3719H10.21Z" fill="white" stroke="#4BB0E6" stroke-width="0.809154"/>
<path d="M7.22266 0.645508H56.4668C57.0538 0.646206 57.6275 0.832082 58.1094 1.17871C58.5914 1.52557 58.9589 2.01754 59.1602 2.58789L59.1611 2.58887L63.0176 13.4688V13.4697C63.1944 13.9647 63.2841 14.4885 63.2842 15.0166V19.3438C63.2825 22.5674 60.7502 25.1835 57.6211 25.1836H57.6201C56.8761 25.1845 56.1392 25.0339 55.4521 24.7402C54.7649 24.4465 54.1411 24.0154 53.6172 23.4717L53.3252 23.1699L53.0342 23.4717C52.51 24.0156 51.8858 24.4465 51.1982 24.7402C50.5108 25.0339 49.7736 25.1846 49.0293 25.1836H49.0283C48.2842 25.1845 47.5466 25.034 46.8594 24.7402C46.1722 24.4465 45.5482 24.0154 45.0244 23.4717L44.7334 23.1699L44.4414 23.4717C43.9174 24.0155 43.2939 24.4475 42.6064 24.7412C41.9189 25.0349 41.181 25.1847 40.4365 25.1836H40.4355C39.6914 25.1845 38.9538 25.034 38.2666 24.7402C37.5795 24.4465 36.9554 24.0153 36.4316 23.4717L36.1406 23.1699L35.8496 23.4717C35.3255 24.0156 34.7012 24.4475 34.0137 24.7412C33.3262 25.0349 32.5882 25.1847 31.8438 25.1836H31.8428C31.0985 25.1847 30.3612 25.0348 29.6738 24.7412C28.9863 24.4475 28.362 24.0156 27.8379 23.4717L27.5469 23.1699L27.2549 23.4717C26.731 24.0154 26.1072 24.4465 25.4199 24.7402C24.7328 25.0339 23.996 25.1845 23.252 25.1836H23.251C21.6847 25.1836 20.2684 24.5289 19.2451 23.4717L18.9531 23.1699L18.6631 23.4717C18.1393 24.0153 17.5152 24.4465 16.8281 24.7402C16.1409 25.034 15.4033 25.1845 14.6592 25.1836H14.6582C13.9138 25.1846 13.1758 25.034 12.4883 24.7402C11.801 24.4465 11.1773 24.0154 10.6533 23.4717L10.3613 23.1699L10.0703 23.4717C9.5467 24.0151 8.92316 24.4465 8.23633 24.7402C7.54941 25.034 6.81223 25.1843 6.06836 25.1836C2.93733 25.1836 0.404297 22.5672 0.404297 19.3438V15.0166C0.404328 14.4884 0.49438 13.9635 0.669922 13.4678L4.52637 2.58691C4.72799 2.01616 5.09636 1.52442 5.5791 1.17773C6.06157 0.831264 6.63533 0.64554 7.22266 0.645508ZM60.5537 15.0156C60.5534 14.8664 60.5339 14.7181 60.4961 14.5742L60.4521 14.4326L56.6582 3.72754L56.5625 3.45801H56.415L56.3242 3.21582L56.0723 3.30957L56.1279 3.45801H7.125L7.0293 3.72754L3.23438 14.4326C3.16804 14.619 3.13437 14.8157 3.13379 15.0137V19.3418C3.13379 21.0183 4.44805 22.3721 6.06641 22.3721C7.68077 22.372 8.99707 21.0205 8.99707 19.3438C8.99714 18.968 9.14349 18.6096 9.40039 18.3467C9.65698 18.0841 10.0026 17.9385 10.3613 17.9385C10.7202 17.9385 11.0666 18.084 11.3232 18.3467C11.5796 18.6091 11.725 18.9668 11.7256 19.3418C11.7208 20.1368 12.0251 20.9029 12.5732 21.4717C13.1217 22.0407 13.8701 22.3659 14.6553 22.3721H14.6582C16.2727 22.3721 17.5898 21.0206 17.5898 19.3438C17.5899 18.9681 17.7354 18.6096 17.9922 18.3467C18.2488 18.084 18.5953 17.9385 18.9541 17.9385C19.3129 17.9385 19.6594 18.084 19.916 18.3467C20.1727 18.6096 20.3183 18.9681 20.3184 19.3438C20.3141 20.1379 20.6175 20.9034 21.165 21.4717C21.7135 22.0409 22.4628 22.3659 23.248 22.3721H23.251C24.8653 22.3721 26.1816 21.0209 26.1816 19.3457C26.1817 18.9699 26.3281 18.6116 26.585 18.3486C26.8416 18.086 27.188 17.9395 27.5469 17.9395C27.9056 17.9396 28.2513 18.0861 28.5078 18.3486C28.7647 18.6116 28.9111 18.9699 28.9111 19.3457V19.3467C28.9133 21.0213 30.2295 22.3721 31.8438 22.3721C33.4578 22.372 34.7764 21.0209 34.7764 19.3438C34.7764 18.9681 34.922 18.6096 35.1787 18.3467C35.4353 18.084 35.7818 17.9385 36.1406 17.9385C36.4995 17.9385 36.8459 18.084 37.1025 18.3467C37.3593 18.6096 37.5048 18.9681 37.5049 19.3438C37.5049 21.0184 38.8199 22.3721 40.4365 22.3721C42.0505 22.3718 43.366 21.0211 43.3682 19.3467V19.3457C43.3682 18.97 43.5147 18.6116 43.7715 18.3486C44.0281 18.086 44.3746 17.9395 44.7334 17.9395C45.0921 17.9395 45.4377 18.0861 45.6943 18.3486C45.9513 18.6116 46.0976 18.9699 46.0977 19.3457C46.0977 21.0209 47.4141 22.372 49.0283 22.3721C50.6444 22.3721 51.9609 21.0208 51.9609 19.3438C51.961 18.968 52.1074 18.6096 52.3643 18.3467C52.6208 18.0841 52.9665 17.9386 53.3252 17.9385C53.684 17.9385 54.0305 18.084 54.2871 18.3467C54.544 18.6096 54.6904 18.968 54.6904 19.3438C54.6904 21.0184 56.0045 22.3721 57.6211 22.3721C59.239 22.372 60.5537 21.0206 60.5537 19.3438V15.0156Z" fill="white" stroke="#4BB0E6" stroke-width="0.809154"/>
<path d="M15.0371 35.0455H20.3438C20.468 35.0455 20.5899 35.0962 20.6807 35.1891C20.7716 35.2823 20.8242 35.4108 20.8242 35.5465V39.1676C20.8242 39.3033 20.7716 39.4318 20.6807 39.525C20.5899 39.6179 20.468 39.6686 20.3438 39.6686H15.0371C14.913 39.6686 14.7919 39.6178 14.7012 39.525C14.6101 39.4318 14.5567 39.3034 14.5566 39.1676V35.5465C14.5566 35.4107 14.6101 35.2823 14.7012 35.1891C14.7919 35.0963 14.913 35.0455 15.0371 35.0455Z" fill="white" stroke="#4BB0E6" stroke-width="0.809154"/>
<path d="M18.5762 36.8561H23.8828C24.007 36.8561 24.129 36.9067 24.2197 36.9996C24.3107 37.0928 24.3633 37.2214 24.3633 37.3571V39.1676C24.3633 39.3033 24.3107 39.4318 24.2197 39.525C24.129 39.6179 24.007 39.6686 23.8828 39.6686H18.5762C18.452 39.6686 18.331 39.6178 18.2402 39.525C18.1492 39.4318 18.0957 39.3034 18.0957 39.1676V37.3571C18.0957 37.2213 18.1492 37.0928 18.2402 36.9996C18.331 36.9069 18.452 36.8561 18.5762 36.8561ZM29.1904 35.0455C29.7838 35.0455 30.3548 35.287 30.7773 35.7194C31.2002 36.1521 31.4395 36.7411 31.4395 37.3571C31.4394 37.973 31.2002 38.562 30.7773 38.9948C30.3548 39.4271 29.7838 39.6686 29.1904 39.6686C28.5971 39.6686 28.026 39.4271 27.6035 38.9948C27.1807 38.562 26.9414 37.973 26.9414 37.3571C26.9414 36.7411 27.1807 36.1521 27.6035 35.7194C28.026 35.287 28.5971 35.0455 29.1904 35.0455Z" fill="white" stroke="#4BB0E6" stroke-width="0.809154"/>
</svg>
