<svg width="58" height="48" viewBox="0 0 58 48" fill="none" xmlns="http://www.w3.org/2000/svg">
<path d="M8.17969 1.46484H49.0752C50.0594 1.46485 50.9882 1.78329 51.6592 2.32715C52.3271 2.86866 52.6757 3.57816 52.6758 4.29004V14.2344C52.6757 14.9462 52.3271 15.6558 51.6592 16.1973C50.9882 16.7411 50.0594 17.0596 49.0752 17.0596H30.1826V24.667H47.0303C48.0145 24.667 48.9432 24.9854 49.6143 25.5293C50.2822 26.0708 50.6308 26.7803 50.6309 27.4922V34.751L51.0195 34.833C52.8543 35.217 54.4322 36.1261 55.4697 37.3662C56.5038 38.6024 56.9332 40.0826 56.7061 41.5322C56.4783 42.9851 55.5994 44.3464 54.1973 45.3477C52.7936 46.3499 50.973 46.9121 49.0752 46.9121C47.1774 46.9121 45.3567 46.3499 43.9531 45.3477C42.5509 44.3464 41.6721 42.9851 41.4443 41.5322C41.2172 40.0826 41.6466 38.6024 42.6807 37.3662C43.7182 36.1261 45.2961 35.217 47.1309 34.833L47.5195 34.751V27.0029H30.1826V34.6113H36.3174V46.8906H20.9375V34.6113H27.0723V27.0029H9.73438V34.751L10.124 34.833C11.9586 35.217 13.5357 36.1262 14.5732 37.3662C15.6075 38.6025 16.0368 40.0825 15.8096 41.5322C15.5818 42.985 14.7038 44.3464 13.3018 45.3477C11.8982 46.3499 10.0774 46.912 8.17969 46.9121C6.28183 46.9121 4.46027 46.3499 3.05664 45.3477C1.65465 44.3464 0.776608 42.985 0.548828 41.5322C0.321633 40.0825 0.750916 38.6025 1.78516 37.3662C2.82266 36.1262 4.39976 35.217 6.23438 34.833L6.62402 34.751V27.4922C6.6241 26.7802 6.97251 26.0708 7.64062 25.5293C8.31156 24.9855 9.23955 24.6671 10.2236 24.667H27.0723V17.0596H8.17969C7.19547 17.0596 6.26673 16.7411 5.5957 16.1973C4.92763 15.6558 4.57922 14.9463 4.5791 14.2344V4.29004C4.57915 3.57805 4.92764 2.8687 5.5957 2.32715C6.26673 1.78329 7.19547 1.46484 8.17969 1.46484ZM24.0479 44.5547H33.2061V36.9463H24.0479V44.5547ZM50.7959 37.2246C49.9719 36.948 49.0692 36.8763 48.1992 37.0166C47.3295 37.1568 46.5193 37.5042 45.875 38.0264C45.2299 38.5492 44.775 39.2291 44.5889 39.9873C44.4022 40.7479 44.4999 41.5349 44.8613 42.2422C45.2214 42.9466 45.8221 43.5323 46.5703 43.9375C47.3185 44.3426 48.1899 44.5547 49.0752 44.5547C50.2602 44.5547 51.4125 44.174 52.2754 43.4746C53.1408 42.773 53.6543 41.7969 53.6543 40.751C53.6543 39.9727 53.3691 39.2231 52.8535 38.5977C52.3393 37.974 51.6196 37.5011 50.7959 37.2246ZM8.17969 36.9463C7.29428 36.9463 6.42207 37.1592 5.67383 37.5645C4.92561 37.9697 4.32487 38.5553 3.96484 39.2598C3.60357 39.9668 3.50592 40.7534 3.69238 41.5137C3.87849 42.272 4.33435 42.9517 4.97949 43.4746C5.62386 43.9969 6.43393 44.3451 7.30371 44.4854C8.17365 44.6256 9.07652 44.5539 9.90039 44.2773C10.724 44.0008 11.4429 43.5269 11.957 42.9033C12.4726 42.2779 12.7578 41.5292 12.7578 40.751C12.7578 39.7049 12.2446 38.728 11.3789 38.0264C10.5162 37.3273 9.36438 36.9464 8.17969 36.9463ZM7.68945 14.7236H49.5645V3.80078H7.68945V14.7236Z" fill="white" stroke="#4BB0E6" stroke-width="0.978942"/>
<path d="M17.9423 11.0714C19.0716 11.0714 19.9871 10.3294 19.9871 9.41414C19.9871 8.49884 19.0716 7.75684 17.9423 7.75684C16.8129 7.75684 15.8975 8.49884 15.8975 9.41414C15.8975 10.3294 16.8129 11.0714 17.9423 11.0714Z" fill="#4BB0E6"/>
</svg>
