<svg width="858" height="1553" viewBox="0 0 858 1553" fill="none" xmlns="http://www.w3.org/2000/svg">
<mask id="path-1-inside-1_5959_12752" fill="white">
<path d="M789.598 0C796.43 0 800.801 8.62723 800.801 15.459C800.801 32.8606 820.008 46.9678 843.701 46.9678C851.015 46.9677 858 52.3082 858 59.6217V1121.78C858 1129.09 851.015 1134.43 843.701 1134.43C820.008 1134.43 800.801 1148.54 800.801 1165.94C800.801 1183.34 820.008 1197.45 843.701 1197.45C851.015 1197.45 858 1202.79 858 1210.1V1346.54C858 1353.85 851.015 1359.19 843.701 1359.19C820.008 1359.19 800.801 1373.3 800.801 1390.7C800.801 1408.1 820.008 1422.21 843.701 1422.21C851.015 1422.21 858 1427.55 858 1434.86V1495.17C858 1527.11 832.109 1553 800.171 1553H57.8282C25.8906 1553 0 1527.11 0 1495.17V1434.86C0 1427.55 6.98632 1422.21 14.3008 1422.21C37.9936 1422.21 57.2002 1408.1 57.2002 1390.7C57.2001 1373.3 37.9935 1359.19 14.3008 1359.19C6.98643 1359.19 0 1353.85 0 1346.54V1210.1C0 1202.79 6.98638 1197.45 14.3008 1197.45C37.9935 1197.45 57.2001 1183.34 57.2002 1165.94C57.2002 1148.54 37.9936 1134.43 14.3008 1134.43C6.98642 1134.43 0 1129.09 0 1121.77V59.6237C0 52.3092 6.98637 46.9678 14.3008 46.9678C37.9936 46.9676 57.2002 32.8605 57.2002 15.459C57.2001 8.62725 61.5709 0 68.4026 0H789.598Z"/>
</mask>
<path d="M800.801 1165.94H799.801H800.801ZM800.801 1390.7H799.801H800.801ZM57.2002 1390.7H58.2002H57.2002ZM57.2002 1165.94H58.2002H57.2002ZM800.801 15.459H799.801C799.801 24.5542 804.822 32.7047 812.774 38.5449C820.726 44.3856 831.664 47.9678 843.701 47.9678V46.9678V45.9678C832.045 45.9678 821.533 42.4963 813.958 36.933C806.383 31.3693 801.801 23.7653 801.801 15.459H800.801ZM858 59.6217H857V1121.78H858H859V59.6217H858ZM843.701 1134.43V1133.43C831.664 1133.43 820.726 1137.01 812.774 1142.85C804.822 1148.69 799.801 1156.85 799.801 1165.94H800.801H801.801C801.801 1157.63 806.383 1150.03 813.958 1144.47C821.533 1138.9 832.045 1135.43 843.701 1135.43V1134.43ZM800.801 1165.94H799.801C799.801 1175.04 804.823 1183.19 812.774 1189.03C820.727 1194.87 831.664 1198.45 843.701 1198.45V1197.45V1196.45C832.045 1196.45 821.533 1192.98 813.958 1187.41C806.383 1181.85 801.801 1174.25 801.801 1165.94H800.801ZM858 1210.1H857V1346.54H858H859V1210.1H858ZM843.701 1359.19V1358.19C831.664 1358.19 820.727 1361.78 812.774 1367.62C804.823 1373.46 799.801 1381.61 799.801 1390.7H800.801H801.801C801.801 1382.39 806.383 1374.79 813.958 1369.23C821.533 1363.66 832.045 1360.19 843.701 1360.19V1359.19ZM800.801 1390.7H799.801C799.801 1399.8 804.822 1407.95 812.774 1413.79C820.726 1419.63 831.664 1423.21 843.701 1423.21V1422.21V1421.21C832.045 1421.21 821.533 1417.74 813.958 1412.18C806.383 1406.61 801.801 1399.01 801.801 1390.7H800.801ZM858 1434.86H857V1495.17H858H859V1434.86H858ZM800.171 1553V1552H57.8282V1553V1554H800.171V1553ZM0 1495.17H1V1434.86H0H-1V1495.17H0ZM14.3008 1422.21L14.3008 1423.21C26.3378 1423.21 37.2752 1419.63 45.2273 1413.79C53.1788 1407.95 58.2002 1399.8 58.2002 1390.7H57.2002H56.2002C56.2002 1399.01 51.6183 1406.61 44.0433 1412.18C36.4689 1417.74 25.9566 1421.21 14.3008 1421.21L14.3008 1422.21ZM57.2002 1390.7H58.2002C58.2001 1381.61 53.1787 1373.46 45.2272 1367.62C37.2751 1361.78 26.3378 1358.19 14.3008 1358.19L14.3008 1359.19L14.3008 1360.19C25.9565 1360.19 36.4688 1363.66 44.0433 1369.23C51.6182 1374.79 56.2001 1382.39 56.2002 1390.7H57.2002ZM0 1346.54H1V1210.1H0H-1V1346.54H0ZM14.3008 1197.45L14.3008 1198.45C26.3378 1198.45 37.2751 1194.87 45.2272 1189.03C53.1787 1183.19 58.2001 1175.04 58.2002 1165.94H57.2002H56.2002C56.2001 1174.25 51.6182 1181.85 44.0433 1187.41C36.4688 1192.98 25.9565 1196.45 14.3008 1196.45L14.3008 1197.45ZM57.2002 1165.94H58.2002C58.2002 1156.85 53.1788 1148.69 45.2273 1142.85C37.2752 1137.01 26.3378 1133.43 14.3008 1133.43L14.3008 1134.43L14.3008 1135.43C25.9566 1135.43 36.4689 1138.9 44.0433 1144.47C51.6183 1150.03 56.2002 1157.63 56.2002 1165.94H57.2002ZM0 1121.77H1V59.6237H0H-1V1121.77H0ZM14.3008 46.9678L14.3008 47.9678C26.3378 47.9677 37.2752 44.3855 45.2273 38.5448C53.1788 32.7046 58.2002 24.5542 58.2002 15.459H57.2002H56.2002C56.2002 23.7653 51.6183 31.3692 44.0433 36.9329C36.4689 42.4963 25.9566 45.9677 14.3008 45.9678L14.3008 46.9678ZM68.4026 0V1H789.598V0V-1H68.4026V0ZM57.2002 15.459L58.2002 15.459C58.2002 12.2316 59.2394 8.55609 61.0792 5.71055C62.9224 2.85987 65.4519 1 68.4026 1V0V-1C64.5216 -1 61.4499 1.45375 59.3997 4.62464C57.3462 7.80065 56.2002 11.8546 56.2002 15.459L57.2002 15.459ZM14.3008 1134.43V1133.43C7.37487 1133.43 1 1128.39 1 1121.77H0H-1C-1 1129.79 6.59797 1135.43 14.3008 1135.43V1134.43ZM0 1210.1H1C1 1203.49 7.37473 1198.45 14.3008 1198.45V1197.45V1196.45C6.59803 1196.45 -1 1202.09 -1 1210.1H0ZM0 1434.86H1C1 1428.25 7.37458 1423.21 14.3008 1423.21V1422.21V1421.21C6.59807 1421.21 -1 1426.85 -1 1434.86H0ZM843.701 1422.21V1423.21C850.626 1423.21 857 1428.25 857 1434.86H858H859C859 1426.85 851.403 1421.21 843.701 1421.21V1422.21ZM14.3008 1359.19V1358.19C7.37488 1358.19 1 1353.15 1 1346.54H0H-1C-1 1354.55 6.59798 1360.19 14.3008 1360.19V1359.19ZM858 1346.54H857C857 1353.15 850.626 1358.19 843.701 1358.19V1359.19V1360.19C851.403 1360.19 859 1354.55 859 1346.54H858ZM57.8282 1553V1552C26.4429 1552 1 1526.56 1 1495.17H0H-1C-1 1527.66 25.3383 1554 57.8282 1554V1553ZM858 1121.78H857C857 1128.39 850.626 1133.43 843.701 1133.43V1134.43V1135.43C851.403 1135.43 859 1129.79 859 1121.78H858ZM843.701 1197.45V1198.45C850.626 1198.45 857 1203.49 857 1210.1H858H859C859 1202.09 851.403 1196.45 843.701 1196.45V1197.45ZM858 1495.17H857C857 1526.56 831.557 1552 800.171 1552V1553V1554C832.661 1554 859 1527.66 859 1495.17H858ZM0 59.6237H1C1 53.0123 7.37472 47.9678 14.3008 47.9678V46.9678V45.9678C6.59802 45.9678 -1 51.6062 -1 59.6237H0ZM843.701 46.9678V47.9678C850.626 47.9677 857 53.0113 857 59.6217H858H859C859 51.6051 851.403 45.9677 843.701 45.9678V46.9678ZM800.801 15.459L801.801 15.459C801.801 11.8546 800.655 7.80064 798.601 4.62463C796.551 1.45375 793.479 -1 789.598 -1V0V1C792.549 1 795.079 2.85987 796.922 5.71054C798.762 8.55609 799.801 12.2316 799.801 15.459L800.801 15.459Z" fill="#4C4DDC" mask="url(#path-1-inside-1_5959_12752)"/>
</svg>
